<?xml version="1.0" standalone="no"?>
<!DOCTYPE svg PUBLIC "-//W3C//DTD SVG 20010904//EN"
 "http://www.w3.org/TR/2001/REC-SVG-20010904/DTD/svg10.dtd">
<svg version="1.0" xmlns="http://www.w3.org/2000/svg"
 width="1350.000000pt" height="1350.000000pt" viewBox="0 0 1350.000000 1350.000000"
 preserveAspectRatio="xMidYMid meet">
<metadata>
Created by potrace 1.14, written by Peter Selinger 2001-2017
</metadata>
<g transform="translate(0.000000,1350.000000) scale(0.100000,-0.100000)"
fill="#000000" stroke="none">
<path d="M6345 13494 c-22 -2 -98 -9 -170 -14 -1310 -107 -2607 -624 -3644
-1454 -211 -168 -349 -293 -557 -500 -525 -526 -928 -1084 -1260 -1746 -387
-773 -604 -1537 -696 -2455 -18 -177 -18 -973 0 -1150 92 -918 309 -1682 696
-2455 332 -662 735 -1220 1260 -1746 526 -525 1084 -928 1746 -1260 773 -387
1537 -604 2455 -696 177 -18 973 -18 1150 0 918 92 1682 309 2455 696 662 332
1220 735 1746 1260 525 526 928 1084 1260 1746 387 773 604 1537 696 2455 18
177 18 973 0 1150 -92 918 -309 1682 -696 2455 -332 662 -735 1220 -1260 1746
-526 525 -1084 928 -1746 1260 -770 385 -1511 597 -2440 695 -99 10 -910 21
-995 13z m895 -333 c1132 -117 2061 -430 2945 -993 801 -511 1472 -1182 1983
-1983 566 -888 881 -1827 994 -2960 17 -173 17 -777 0 -950 -76 -765 -236
-1408 -509 -2045 -304 -710 -760 -1391 -1318 -1969 -401 -414 -973 -847 -1526
-1154 l-65 -36 -58 38 c-32 21 -54 41 -49 44 4 3 78 33 163 67 85 34 161 66
170 70 8 4 28 14 44 21 68 32 109 134 87 216 -17 67 -49 103 -122 141 -108 56
-351 214 -342 222 4 5 107 65 228 134 121 70 232 140 246 157 33 38 54 107 46
154 -13 81 -30 99 -304 312 -145 113 -262 210 -261 215 2 5 127 105 277 221
151 117 283 224 294 239 22 30 33 108 23 163 -4 19 -21 51 -38 71 -17 19 -144
123 -282 231 -138 108 -254 199 -258 202 -4 3 118 85 270 181 294 186 347 226
369 277 17 42 17 125 -1 166 -12 29 -109 124 -190 185 -15 12 -142 121 -282
243 l-253 221 367 309 c202 171 377 322 389 337 36 44 50 113 34 169 -23 88 9
65 -728 525 l-212 133 339 340 c186 187 344 353 350 368 14 40 13 122 -4 160
-7 18 -29 46 -47 63 -19 17 -204 127 -411 244 -208 118 -378 217 -378 222 0 7
26 40 181 233 22 28 60 75 84 105 24 30 118 147 208 259 173 213 196 253 184
326 -9 55 -38 105 -77 134 -29 21 -85 38 -246 75 -115 26 -261 61 -324 77
-129 32 -347 84 -522 124 -65 15 -118 30 -118 34 0 4 45 194 100 423 55 229
100 437 100 462 0 59 -19 103 -61 143 -42 39 -77 53 -136 53 -33 0 -1588 -361
-1704 -396 -13 -4 -19 28 -43 218 -37 306 -41 322 -84 371 -21 22 -51 46 -69
54 -40 16 -129 16 -163 0 -14 -7 -88 -59 -164 -117 -76 -58 -155 -116 -175
-130 -20 -14 -135 -99 -255 -190 -121 -91 -257 -193 -302 -227 l-83 -62 -28
62 c-16 34 -53 118 -83 186 -63 144 -102 190 -173 211 -54 14 -104 9 -153 -17
-19 -10 -109 -104 -202 -209 -92 -105 -265 -303 -386 -438 l-219 -247 -36 33
c-20 19 -103 98 -184 177 -82 78 -164 149 -183 157 -43 18 -125 18 -168 0 -18
-7 -47 -31 -65 -52 -37 -45 -196 -372 -269 -554 -28 -69 -76 -183 -107 -255
-31 -71 -72 -166 -91 -210 -135 -323 -143 -337 -270 -493 -123 -150 -248 -314
-281 -369 -10 -17 -55 -92 -101 -167 -109 -178 -231 -430 -281 -581 -110 -331
-120 -623 -30 -857 165 -427 672 -673 1384 -672 186 0 235 4 425 32 499 76
996 193 1402 331 l116 39 11 -41 c47 -192 97 -773 122 -1427 14 -383 14 -1439
0 -1835 -40 -1078 -129 -1878 -260 -2328 -16 -54 -31 -100 -33 -103 -7 -6
-312 71 -488 123 -1235 365 -2362 1127 -3176 2144 -816 1019 -1269 2159 -1406
3534 -17 173 -17 777 0 950 113 1133 428 2072 994 2960 568 891 1323 1610
2258 2150 782 452 1749 748 2685 825 72 5 148 12 170 14 78 8 691 -3 795 -13z"/>
</g>
</svg>
